<svg xmlns="http://www.w3.org/2000/svg" xmlns:xlink="http://www.w3.org/1999/xlink" version="1.1" class="marks" width="615" height="473" viewBox="0 0 615 473"><rect width="615" height="473" fill="white"/><g fill="none" stroke-miterlimit="10" transform="translate(21,33)"><g class="mark-group role-frame root" role="graphics-object" aria-roledescription="group mark container"><g transform="translate(0,0)"><path class="background" aria-hidden="true" d="M0,0h0v0h0Z"/><g><g class="mark-group role-scope concat_0_group" role="graphics-object" aria-roledescription="group mark container"><g transform="translate(0,0)"><path class="background" aria-hidden="true" d="M0.5,0.5h80v300h-80Z" stroke="#ddd"/><g><g class="mark-group role-axis" role="graphics-symbol" aria-roledescription="axis" aria-label="Y-axis for a linear scale with values from 0 to 13"><g transform="translate(0.5,0.5)"><path class="background" aria-hidden="true" d="M0,0h0v0h0Z" pointer-events="none"/><g><g class="mark-rule role-axis-grid" pointer-events="none"><line transform="translate(0,300)" x2="80" y2="0" stroke="#ddd" stroke-width="1" opacity="1"/><line transform="translate(0,254)" x2="80" y2="0" stroke="#ddd" stroke-width="1" opacity="1"/><line transform="translate(0,208)" x2="80" y2="0" stroke="#ddd" stroke-width="1" opacity="1"/><line transform="translate(0,162)" x2="80" y2="0" stroke="#ddd" stroke-width="1" opacity="1"/><line transform="translate(0,115)" x2="80" y2="0" stroke="#ddd" stroke-width="1" opacity="1"/><line transform="translate(0,69)" x2="80" y2="0" stroke="#ddd" stroke-width="1" opacity="1"/><line transform="translate(0,23)" x2="80" y2="0" stroke="#ddd" stroke-width="1" opacity="1"/></g></g><path class="foreground" aria-hidden="true" d="" pointer-events="none" display="none"/></g></g><g class="mark-group role-axis"><g transform="translate(0.5,300.5)"><path class="background" aria-hidden="true" d="M0,0h0v0h0Z" pointer-events="none"/><g/><path class="foreground" aria-hidden="true" d="" pointer-events="none" display="none"/></g></g><g class="mark-group role-axis" role="graphics-symbol" aria-roledescription="axis" aria-label="Y-axis titled 'y' for a linear scale with values from 0 to 13"><g transform="translate(0.5,0.5)"><path class="background" aria-hidden="true" d="M0,0h0v0h0Z" pointer-events="none"/><g><g class="mark-text role-axis-title" pointer-events="none"><text text-anchor="middle" transform="translate(-4,150) rotate(-90) translate(0,-2)" font-family="sans-serif" font-size="11px" font-weight="bold" fill="#000" opacity="1">y</text></g></g><path class="foreground" aria-hidden="true" d="" pointer-events="none" display="none"/></g></g><g class="mark-rect role-mark concat_0_marks" role="graphics-symbol" aria-roledescription="rect mark container"><path d="M2.5,113.96153846153848h15v1h-15Z" fill="#4c78a8" opacity="0.7"/><path d="M2.5,139.1153846153846h15v1h-15Z" fill="#4c78a8" opacity="0.7"/><path d="M2.5,124.57692307692308h15v1h-15Z" fill="#4c78a8" opacity="0.7"/><path d="M2.5,96.1923076923077h15v1h-15Z" fill="#4c78a8" opacity="0.7"/><path d="M2.5,107.26923076923077h15v1h-15Z" fill="#4c78a8" opacity="0.7"/><path d="M2.5,69.65384615384615h15v1h-15Z" fill="#4c78a8" opacity="0.7"/><path d="M2.5,132.4230769230769h15v1h-15Z" fill="#4c78a8" opacity="0.7"/><path d="M2.5,201.19230769230768h15v1h-15Z" fill="#4c78a8" opacity="0.7"/><path d="M2.5,49.34615384615386h15v1h-15Z" fill="#4c78a8" opacity="0.7"/><path d="M2.5,188.26923076923077h15v1h-15Z" fill="#4c78a8" opacity="0.7"/><path d="M2.5,168.4230769230769h15v1h-15Z" fill="#4c78a8" opacity="0.7"/><path d="M22.5,88.57692307692305h15v1h-15Z" fill="#f58518" opacity="0.7"/><path d="M22.5,111.65384615384615h15v1h-15Z" fill="#f58518" opacity="0.7"/><path d="M22.5,97.80769230769232h15v1h-15Z" fill="#f58518" opacity="0.7"/><path d="M22.5,97.11538461538461h15v1h-15Z" fill="#f58518" opacity="0.7"/><path d="M22.5,85.8076923076923h15v1h-15Z" fill="#f58518" opacity="0.7"/><path d="M22.5,112.57692307692308h15v1h-15Z" fill="#f58518" opacity="0.7"/><path d="M22.5,158.03846153846155h15v1h-15Z" fill="#f58518" opacity="0.7"/><path d="M22.5,227.96153846153845h15v1h-15Z" fill="#f58518" opacity="0.7"/><path d="M22.5,88.80769230769228h15v1h-15Z" fill="#f58518" opacity="0.7"/><path d="M22.5,131.96153846153845h15v1h-15Z" fill="#f58518" opacity="0.7"/><path d="M22.5,190.11538461538464h15v1h-15Z" fill="#f58518" opacity="0.7"/><path d="M42.5,127.34615384615383h15v1h-15Z" fill="#e45756" opacity="0.7"/><path d="M42.5,143.26923076923077h15v1h-15Z" fill="#e45756" opacity="0.7"/><path d="M42.5,5.500000000000005h15v1h-15Z" fill="#e45756" opacity="0.7"/><path d="M42.5,135.4230769230769h15v1h-15Z" fill="#e45756" opacity="0.7"/><path d="M42.5,119.26923076923079h15v1h-15Z" fill="#e45756" opacity="0.7"/><path d="M42.5,95.50000000000001h15v1h-15Z" fill="#e45756" opacity="0.7"/><path d="M42.5,159.1923076923077h15v1h-15Z" fill="#e45756" opacity="0.7"/><path d="M42.5,175.1153846153846h15v1h-15Z" fill="#e45756" opacity="0.7"/><path d="M42.5,111.42307692307692h15v1h-15Z" fill="#e45756" opacity="0.7"/><path d="M42.5,151.34615384615384h15v1h-15Z" fill="#e45756" opacity="0.7"/><path d="M42.5,167.26923076923077h15v1h-15Z" fill="#e45756" opacity="0.7"/><path d="M62.5,147.65384615384616h15v1h-15Z" fill="#72b7b2" opacity="0.7"/><path d="M62.5,166.5769230769231h15v1h-15Z" fill="#72b7b2" opacity="0.7"/><path d="M62.5,121.57692307692308h15v1h-15Z" fill="#72b7b2" opacity="0.7"/><path d="M62.5,95.50000000000001h15v1h-15Z" fill="#72b7b2" opacity="0.7"/><path d="M62.5,104.03846153846152h15v1h-15Z" fill="#72b7b2" opacity="0.7"/><path d="M62.5,137.03846153846155h15v1h-15Z" fill="#72b7b2" opacity="0.7"/><path d="M62.5,178.34615384615384h15v1h-15Z" fill="#72b7b2" opacity="0.7"/><path d="M62.5,11.038461538461531h15v1h-15Z" fill="#72b7b2" opacity="0.7"/><path d="M62.5,171.19230769230774h15v1h-15Z" fill="#72b7b2" opacity="0.7"/><path d="M62.5,116.96153846153845h15v1h-15Z" fill="#72b7b2" opacity="0.7"/><path d="M62.5,140.5h15v1h-15Z" fill="#72b7b2" opacity="0.7"/></g></g><path class="foreground" aria-hidden="true" d="" display="none"/></g></g><g class="mark-group role-scope concat_1_group" role="graphics-object" aria-roledescription="group mark container"><g transform="translate(121,0)"><path class="background" aria-hidden="true" d="M0,0h0v0h0Z"/><g><g class="mark-group role-scope concat_1_concat_0_group" role="graphics-object" aria-roledescription="group mark container"><g transform="translate(0,0)"><path class="background" aria-hidden="true" d="M0.5,0.5h400v300h-400Z" stroke="#ddd"/><g><g class="mark-group role-axis" role="graphics-symbol" aria-roledescription="axis" aria-label="X-axis for a linear scale with values from 0 to 20"><g transform="translate(0.5,300.5)"><path class="background" aria-hidden="true" d="M0,0h0v0h0Z" pointer-events="none"/><g><g class="mark-rule role-axis-grid" pointer-events="none"><line transform="translate(0,-300)" x2="0" y2="300" stroke="#ddd" stroke-width="1" opacity="1"/><line transform="translate(40,-300)" x2="0" y2="300" stroke="#ddd" stroke-width="1" opacity="1"/><line transform="translate(80,-300)" x2="0" y2="300" stroke="#ddd" stroke-width="1" opacity="1"/><line transform="translate(120,-300)" x2="0" y2="300" stroke="#ddd" stroke-width="1" opacity="1"/><line transform="translate(160,-300)" x2="0" y2="300" stroke="#ddd" stroke-width="1" opacity="1"/><line transform="translate(200,-300)" x2="0" y2="300" stroke="#ddd" stroke-width="1" opacity="1"/><line transform="translate(240,-300)" x2="0" y2="300" stroke="#ddd" stroke-width="1" opacity="1"/><line transform="translate(280,-300)" x2="0" y2="300" stroke="#ddd" stroke-width="1" opacity="1"/><line transform="translate(320,-300)" x2="0" y2="300" stroke="#ddd" stroke-width="1" opacity="1"/><line transform="translate(360,-300)" x2="0" y2="300" stroke="#ddd" stroke-width="1" opacity="1"/><line transform="translate(400,-300)" x2="0" y2="300" stroke="#ddd" stroke-width="1" opacity="1"/></g></g><path class="foreground" aria-hidden="true" d="" pointer-events="none" display="none"/></g></g><g class="mark-group role-axis" role="graphics-symbol" aria-roledescription="axis" aria-label="Y-axis for a linear scale with values from 0 to 13"><g transform="translate(0.5,0.5)"><path class="background" aria-hidden="true" d="M0,0h0v0h0Z" pointer-events="none"/><g><g class="mark-rule role-axis-grid" pointer-events="none"><line transform="translate(0,300)" x2="400" y2="0" stroke="#ddd" stroke-width="1" opacity="1"/><line transform="translate(0,254)" x2="400" y2="0" stroke="#ddd" stroke-width="1" opacity="1"/><line transform="translate(0,208)" x2="400" y2="0" stroke="#ddd" stroke-width="1" opacity="1"/><line transform="translate(0,162)" x2="400" y2="0" stroke="#ddd" stroke-width="1" opacity="1"/><line transform="translate(0,115)" x2="400" y2="0" stroke="#ddd" stroke-width="1" opacity="1"/><line transform="translate(0,69)" x2="400" y2="0" stroke="#ddd" stroke-width="1" opacity="1"/><line transform="translate(0,23)" x2="400" y2="0" stroke="#ddd" stroke-width="1" opacity="1"/></g></g><path class="foreground" aria-hidden="true" d="" pointer-events="none" display="none"/></g></g><g class="mark-group role-axis" role="graphics-symbol" aria-roledescription="axis" aria-label="X-axis for a linear scale with values from 0 to 20"><g transform="translate(0.5,300.5)"><path class="background" aria-hidden="true" d="M0,0h0v0h0Z" pointer-events="none"/><g><g class="mark-rule role-axis-tick" pointer-events="none"><line transform="translate(0,0)" x2="0" y2="5" stroke="#888" stroke-width="1" opacity="1"/><line transform="translate(40,0)" x2="0" y2="5" stroke="#888" stroke-width="1" opacity="1"/><line transform="translate(80,0)" x2="0" y2="5" stroke="#888" stroke-width="1" opacity="1"/><line transform="translate(120,0)" x2="0" y2="5" stroke="#888" stroke-width="1" opacity="1"/><line transform="translate(160,0)" x2="0" y2="5" stroke="#888" stroke-width="1" opacity="1"/><line transform="translate(200,0)" x2="0" y2="5" stroke="#888" stroke-width="1" opacity="1"/><line transform="translate(240,0)" x2="0" y2="5" stroke="#888" stroke-width="1" opacity="1"/><line transform="translate(280,0)" x2="0" y2="5" stroke="#888" stroke-width="1" opacity="1"/><line transform="translate(320,0)" x2="0" y2="5" stroke="#888" stroke-width="1" opacity="1"/><line transform="translate(360,0)" x2="0" y2="5" stroke="#888" stroke-width="1" opacity="1"/><line transform="translate(400,0)" x2="0" y2="5" stroke="#888" stroke-width="1" opacity="1"/></g><g class="mark-text role-axis-label" pointer-events="none"><text text-anchor="start" transform="translate(0,15)" font-family="sans-serif" font-size="10px" fill="#000" opacity="1">0</text><text text-anchor="middle" transform="translate(40,15)" font-family="sans-serif" font-size="10px" fill="#000" opacity="1">2</text><text text-anchor="middle" transform="translate(80,15)" font-family="sans-serif" font-size="10px" fill="#000" opacity="1">4</text><text text-anchor="middle" transform="translate(120,15)" font-family="sans-serif" font-size="10px" fill="#000" opacity="1">6</text><text text-anchor="middle" transform="translate(160,15)" font-family="sans-serif" font-size="10px" fill="#000" opacity="1">8</text><text text-anchor="middle" transform="translate(200,15)" font-family="sans-serif" font-size="10px" fill="#000" opacity="1">10</text><text text-anchor="middle" transform="translate(240,15)" font-family="sans-serif" font-size="10px" fill="#000" opacity="1">12</text><text text-anchor="middle" transform="translate(280,15)" font-family="sans-serif" font-size="10px" fill="#000" opacity="1">14</text><text text-anchor="middle" transform="translate(320,15)" font-family="sans-serif" font-size="10px" fill="#000" opacity="1">16</text><text text-anchor="middle" transform="translate(360,15)" font-family="sans-serif" font-size="10px" fill="#000" opacity="1">18</text><text text-anchor="end" transform="translate(400,15)" font-family="sans-serif" font-size="10px" fill="#000" opacity="1">20</text></g><g class="mark-rule role-axis-domain" pointer-events="none"><line transform="translate(0,0)" x2="400" y2="0" stroke="#888" stroke-width="1" opacity="1"/></g></g><path class="foreground" aria-hidden="true" d="" pointer-events="none" display="none"/></g></g><g class="mark-group role-axis" role="graphics-symbol" aria-roledescription="axis" aria-label="Y-axis for a linear scale with values from 0 to 13"><g transform="translate(0.5,0.5)"><path class="background" aria-hidden="true" d="M0,0h0v0h0Z" pointer-events="none"/><g><g class="mark-rule role-axis-tick" pointer-events="none"><line transform="translate(0,300)" x2="-5" y2="0" stroke="#888" stroke-width="1" opacity="1"/><line transform="translate(0,254)" x2="-5" y2="0" stroke="#888" stroke-width="1" opacity="1"/><line transform="translate(0,208)" x2="-5" y2="0" stroke="#888" stroke-width="1" opacity="1"/><line transform="translate(0,162)" x2="-5" y2="0" stroke="#888" stroke-width="1" opacity="1"/><line transform="translate(0,115)" x2="-5" y2="0" stroke="#888" stroke-width="1" opacity="1"/><line transform="translate(0,69)" x2="-5" y2="0" stroke="#888" stroke-width="1" opacity="1"/><line transform="translate(0,23)" x2="-5" y2="0" stroke="#888" stroke-width="1" opacity="1"/></g><g class="mark-text role-axis-label" pointer-events="none"><text text-anchor="end" transform="translate(-7,303)" font-family="sans-serif" font-size="10px" fill="#000" opacity="1">0</text><text text-anchor="end" transform="translate(-7,256.8461538461538)" font-family="sans-serif" font-size="10px" fill="#000" opacity="1">2</text><text text-anchor="end" transform="translate(-7,210.69230769230768)" font-family="sans-serif" font-size="10px" fill="#000" opacity="1">4</text><text text-anchor="end" transform="translate(-7,164.53846153846152)" font-family="sans-serif" font-size="10px" fill="#000" opacity="1">6</text><text text-anchor="end" transform="translate(-7,118.38461538461537)" font-family="sans-serif" font-size="10px" fill="#000" opacity="1">8</text><text text-anchor="end" transform="translate(-7,72.23076923076921)" font-family="sans-serif" font-size="10px" fill="#000" opacity="1">10</text><text text-anchor="end" transform="translate(-7,26.076923076923062)" font-family="sans-serif" font-size="10px" fill="#000" opacity="1">12</text></g><g class="mark-rule role-axis-domain" pointer-events="none"><line transform="translate(0,300)" x2="0" y2="-300" stroke="#888" stroke-width="1" opacity="1"/></g></g><path class="foreground" aria-hidden="true" d="" pointer-events="none" display="none"/></g></g><g class="mark-symbol role-mark concat_1_concat_0_marks" role="graphics-symbol" aria-roledescription="symbol mark container"><path transform="translate(200,114.46153846153848)" d="M3.872983346207417,0A3.872983346207417,3.872983346207417,0,1,1,-3.872983346207417,0A3.872983346207417,3.872983346207417,0,1,1,3.872983346207417,0" fill="#4c78a8" stroke-width="2" opacity="0.7"/><path transform="translate(160,139.6153846153846)" d="M3.872983346207417,0A3.872983346207417,3.872983346207417,0,1,1,-3.872983346207417,0A3.872983346207417,3.872983346207417,0,1,1,3.872983346207417,0" fill="#4c78a8" stroke-width="2" opacity="0.7"/><path transform="translate(260,125.07692307692308)" d="M3.872983346207417,0A3.872983346207417,3.872983346207417,0,1,1,-3.872983346207417,0A3.872983346207417,3.872983346207417,0,1,1,3.872983346207417,0" fill="#4c78a8" stroke-width="2" opacity="0.7"/><path transform="translate(180,96.6923076923077)" d="M3.872983346207417,0A3.872983346207417,3.872983346207417,0,1,1,-3.872983346207417,0A3.872983346207417,3.872983346207417,0,1,1,3.872983346207417,0" fill="#4c78a8" stroke-width="2" opacity="0.7"/><path transform="translate(220.00000000000003,107.76923076923077)" d="M3.872983346207417,0A3.872983346207417,3.872983346207417,0,1,1,-3.872983346207417,0A3.872983346207417,3.872983346207417,0,1,1,3.872983346207417,0" fill="#4c78a8" stroke-width="2" opacity="0.7"/><path transform="translate(280,70.15384615384615)" d="M3.872983346207417,0A3.872983346207417,3.872983346207417,0,1,1,-3.872983346207417,0A3.872983346207417,3.872983346207417,0,1,1,3.872983346207417,0" fill="#4c78a8" stroke-width="2" opacity="0.7"/><path transform="translate(120,132.9230769230769)" d="M3.872983346207417,0A3.872983346207417,3.872983346207417,0,1,1,-3.872983346207417,0A3.872983346207417,3.872983346207417,0,1,1,3.872983346207417,0" fill="#4c78a8" stroke-width="2" opacity="0.7"/><path transform="translate(80,201.69230769230768)" d="M3.872983346207417,0A3.872983346207417,3.872983346207417,0,1,1,-3.872983346207417,0A3.872983346207417,3.872983346207417,0,1,1,3.872983346207417,0" fill="#4c78a8" stroke-width="2" opacity="0.7"/><path transform="translate(240,49.84615384615386)" d="M3.872983346207417,0A3.872983346207417,3.872983346207417,0,1,1,-3.872983346207417,0A3.872983346207417,3.872983346207417,0,1,1,3.872983346207417,0" fill="#4c78a8" stroke-width="2" opacity="0.7"/><path transform="translate(140,188.76923076923077)" d="M3.872983346207417,0A3.872983346207417,3.872983346207417,0,1,1,-3.872983346207417,0A3.872983346207417,3.872983346207417,0,1,1,3.872983346207417,0" fill="#4c78a8" stroke-width="2" opacity="0.7"/><path transform="translate(100,168.9230769230769)" d="M3.872983346207417,0A3.872983346207417,3.872983346207417,0,1,1,-3.872983346207417,0A3.872983346207417,3.872983346207417,0,1,1,3.872983346207417,0" fill="#4c78a8" stroke-width="2" opacity="0.7"/><path transform="translate(200,89.07692307692305)" d="M3.872983346207417,0A3.872983346207417,3.872983346207417,0,1,1,-3.872983346207417,0A3.872983346207417,3.872983346207417,0,1,1,3.872983346207417,0" fill="#f58518" stroke-width="2" opacity="0.7"/><path transform="translate(160,112.15384615384615)" d="M3.872983346207417,0A3.872983346207417,3.872983346207417,0,1,1,-3.872983346207417,0A3.872983346207417,3.872983346207417,0,1,1,3.872983346207417,0" fill="#f58518" stroke-width="2" opacity="0.7"/><path transform="translate(260,98.30769230769232)" d="M3.872983346207417,0A3.872983346207417,3.872983346207417,0,1,1,-3.872983346207417,0A3.872983346207417,3.872983346207417,0,1,1,3.872983346207417,0" fill="#f58518" stroke-width="2" opacity="0.7"/><path transform="translate(180,97.61538461538461)" d="M3.872983346207417,0A3.872983346207417,3.872983346207417,0,1,1,-3.872983346207417,0A3.872983346207417,3.872983346207417,0,1,1,3.872983346207417,0" fill="#f58518" stroke-width="2" opacity="0.7"/><path transform="translate(220.00000000000003,86.3076923076923)" d="M3.872983346207417,0A3.872983346207417,3.872983346207417,0,1,1,-3.872983346207417,0A3.872983346207417,3.872983346207417,0,1,1,3.872983346207417,0" fill="#f58518" stroke-width="2" opacity="0.7"/><path transform="translate(280,113.07692307692308)" d="M3.872983346207417,0A3.872983346207417,3.872983346207417,0,1,1,-3.872983346207417,0A3.872983346207417,3.872983346207417,0,1,1,3.872983346207417,0" fill="#f58518" stroke-width="2" opacity="0.7"/><path transform="translate(120,158.53846153846155)" d="M3.872983346207417,0A3.872983346207417,3.872983346207417,0,1,1,-3.872983346207417,0A3.872983346207417,3.872983346207417,0,1,1,3.872983346207417,0" fill="#f58518" stroke-width="2" opacity="0.7"/><path transform="translate(80,228.46153846153845)" d="M3.872983346207417,0A3.872983346207417,3.872983346207417,0,1,1,-3.872983346207417,0A3.872983346207417,3.872983346207417,0,1,1,3.872983346207417,0" fill="#f58518" stroke-width="2" opacity="0.7"/><path transform="translate(240,89.30769230769228)" d="M3.872983346207417,0A3.872983346207417,3.872983346207417,0,1,1,-3.872983346207417,0A3.872983346207417,3.872983346207417,0,1,1,3.872983346207417,0" fill="#f58518" stroke-width="2" opacity="0.7"/><path transform="translate(140,132.46153846153845)" d="M3.872983346207417,0A3.872983346207417,3.872983346207417,0,1,1,-3.872983346207417,0A3.872983346207417,3.872983346207417,0,1,1,3.872983346207417,0" fill="#f58518" stroke-width="2" opacity="0.7"/><path transform="translate(100,190.61538461538464)" d="M3.872983346207417,0A3.872983346207417,3.872983346207417,0,1,1,-3.872983346207417,0A3.872983346207417,3.872983346207417,0,1,1,3.872983346207417,0" fill="#f58518" stroke-width="2" opacity="0.7"/><path transform="translate(200,127.84615384615383)" d="M3.872983346207417,0A3.872983346207417,3.872983346207417,0,1,1,-3.872983346207417,0A3.872983346207417,3.872983346207417,0,1,1,3.872983346207417,0" fill="#e45756" stroke-width="2" opacity="0.7"/><path transform="translate(160,143.76923076923077)" d="M3.872983346207417,0A3.872983346207417,3.872983346207417,0,1,1,-3.872983346207417,0A3.872983346207417,3.872983346207417,0,1,1,3.872983346207417,0" fill="#e45756" stroke-width="2" opacity="0.7"/><path transform="translate(260,6.000000000000005)" d="M3.872983346207417,0A3.872983346207417,3.872983346207417,0,1,1,-3.872983346207417,0A3.872983346207417,3.872983346207417,0,1,1,3.872983346207417,0" fill="#e45756" stroke-width="2" opacity="0.7"/><path transform="translate(180,135.9230769230769)" d="M3.872983346207417,0A3.872983346207417,3.872983346207417,0,1,1,-3.872983346207417,0A3.872983346207417,3.872983346207417,0,1,1,3.872983346207417,0" fill="#e45756" stroke-width="2" opacity="0.7"/><path transform="translate(220.00000000000003,119.76923076923079)" d="M3.872983346207417,0A3.872983346207417,3.872983346207417,0,1,1,-3.872983346207417,0A3.872983346207417,3.872983346207417,0,1,1,3.872983346207417,0" fill="#e45756" stroke-width="2" opacity="0.7"/><path transform="translate(280,96.00000000000001)" d="M3.872983346207417,0A3.872983346207417,3.872983346207417,0,1,1,-3.872983346207417,0A3.872983346207417,3.872983346207417,0,1,1,3.872983346207417,0" fill="#e45756" stroke-width="2" opacity="0.7"/><path transform="translate(120,159.6923076923077)" d="M3.872983346207417,0A3.872983346207417,3.872983346207417,0,1,1,-3.872983346207417,0A3.872983346207417,3.872983346207417,0,1,1,3.872983346207417,0" fill="#e45756" stroke-width="2" opacity="0.7"/><path transform="translate(80,175.6153846153846)" d="M3.872983346207417,0A3.872983346207417,3.872983346207417,0,1,1,-3.872983346207417,0A3.872983346207417,3.872983346207417,0,1,1,3.872983346207417,0" fill="#e45756" stroke-width="2" opacity="0.7"/><path transform="translate(240,111.92307692307692)" d="M3.872983346207417,0A3.872983346207417,3.872983346207417,0,1,1,-3.872983346207417,0A3.872983346207417,3.872983346207417,0,1,1,3.872983346207417,0" fill="#e45756" stroke-width="2" opacity="0.7"/><path transform="translate(140,151.84615384615384)" d="M3.872983346207417,0A3.872983346207417,3.872983346207417,0,1,1,-3.872983346207417,0A3.872983346207417,3.872983346207417,0,1,1,3.872983346207417,0" fill="#e45756" stroke-width="2" opacity="0.7"/><path transform="translate(100,167.76923076923077)" d="M3.872983346207417,0A3.872983346207417,3.872983346207417,0,1,1,-3.872983346207417,0A3.872983346207417,3.872983346207417,0,1,1,3.872983346207417,0" fill="#e45756" stroke-width="2" opacity="0.7"/><path transform="translate(160,148.15384615384616)" d="M3.872983346207417,0A3.872983346207417,3.872983346207417,0,1,1,-3.872983346207417,0A3.872983346207417,3.872983346207417,0,1,1,3.872983346207417,0" fill="#72b7b2" stroke-width="2" opacity="0.7"/><path transform="translate(160,167.0769230769231)" d="M3.872983346207417,0A3.872983346207417,3.872983346207417,0,1,1,-3.872983346207417,0A3.872983346207417,3.872983346207417,0,1,1,3.872983346207417,0" fill="#72b7b2" stroke-width="2" opacity="0.7"/><path transform="translate(160,122.07692307692308)" d="M3.872983346207417,0A3.872983346207417,3.872983346207417,0,1,1,-3.872983346207417,0A3.872983346207417,3.872983346207417,0,1,1,3.872983346207417,0" fill="#72b7b2" stroke-width="2" opacity="0.7"/><path transform="translate(160,96.00000000000001)" d="M3.872983346207417,0A3.872983346207417,3.872983346207417,0,1,1,-3.872983346207417,0A3.872983346207417,3.872983346207417,0,1,1,3.872983346207417,0" fill="#72b7b2" stroke-width="2" opacity="0.7"/><path transform="translate(160,104.53846153846152)" d="M3.872983346207417,0A3.872983346207417,3.872983346207417,0,1,1,-3.872983346207417,0A3.872983346207417,3.872983346207417,0,1,1,3.872983346207417,0" fill="#72b7b2" stroke-width="2" opacity="0.7"/><path transform="translate(160,137.53846153846155)" d="M3.872983346207417,0A3.872983346207417,3.872983346207417,0,1,1,-3.872983346207417,0A3.872983346207417,3.872983346207417,0,1,1,3.872983346207417,0" fill="#72b7b2" stroke-width="2" opacity="0.7"/><path transform="translate(160,178.84615384615384)" d="M3.872983346207417,0A3.872983346207417,3.872983346207417,0,1,1,-3.872983346207417,0A3.872983346207417,3.872983346207417,0,1,1,3.872983346207417,0" fill="#72b7b2" stroke-width="2" opacity="0.7"/><path transform="translate(380,11.538461538461531)" d="M3.872983346207417,0A3.872983346207417,3.872983346207417,0,1,1,-3.872983346207417,0A3.872983346207417,3.872983346207417,0,1,1,3.872983346207417,0" fill="#72b7b2" stroke-width="2" opacity="0.7"/><path transform="translate(160,171.69230769230774)" d="M3.872983346207417,0A3.872983346207417,3.872983346207417,0,1,1,-3.872983346207417,0A3.872983346207417,3.872983346207417,0,1,1,3.872983346207417,0" fill="#72b7b2" stroke-width="2" opacity="0.7"/><path transform="translate(160,117.46153846153845)" d="M3.872983346207417,0A3.872983346207417,3.872983346207417,0,1,1,-3.872983346207417,0A3.872983346207417,3.872983346207417,0,1,1,3.872983346207417,0" fill="#72b7b2" stroke-width="2" opacity="0.7"/><path transform="translate(160,141)" d="M3.872983346207417,0A3.872983346207417,3.872983346207417,0,1,1,-3.872983346207417,0A3.872983346207417,3.872983346207417,0,1,1,3.872983346207417,0" fill="#72b7b2" stroke-width="2" opacity="0.7"/></g></g><path class="foreground" aria-hidden="true" d="" display="none"/></g></g><g class="mark-group role-scope concat_1_concat_1_group" role="graphics-object" aria-roledescription="group mark container"><g transform="translate(0,339)"><path class="background" aria-hidden="true" d="M0.5,0.5h400v80h-400Z" stroke="#ddd"/><g><g class="mark-group role-axis" role="graphics-symbol" aria-roledescription="axis" aria-label="X-axis for a linear scale with values from 0 to 20"><g transform="translate(0.5,80.5)"><path class="background" aria-hidden="true" d="M0,0h0v0h0Z" pointer-events="none"/><g><g class="mark-rule role-axis-grid" pointer-events="none"><line transform="translate(0,0)" x2="0" y2="-80" stroke="#ddd" stroke-width="1" opacity="1"/><line transform="translate(40,0)" x2="0" y2="-80" stroke="#ddd" stroke-width="1" opacity="1"/><line transform="translate(80,0)" x2="0" y2="-80" stroke="#ddd" stroke-width="1" opacity="1"/><line transform="translate(120,0)" x2="0" y2="-80" stroke="#ddd" stroke-width="1" opacity="1"/><line transform="translate(160,0)" x2="0" y2="-80" stroke="#ddd" stroke-width="1" opacity="1"/><line transform="translate(200,0)" x2="0" y2="-80" stroke="#ddd" stroke-width="1" opacity="1"/><line transform="translate(240,0)" x2="0" y2="-80" stroke="#ddd" stroke-width="1" opacity="1"/><line transform="translate(280,0)" x2="0" y2="-80" stroke="#ddd" stroke-width="1" opacity="1"/><line transform="translate(320,0)" x2="0" y2="-80" stroke="#ddd" stroke-width="1" opacity="1"/><line transform="translate(360,0)" x2="0" y2="-80" stroke="#ddd" stroke-width="1" opacity="1"/><line transform="translate(400,0)" x2="0" y2="-80" stroke="#ddd" stroke-width="1" opacity="1"/></g></g><path class="foreground" aria-hidden="true" d="" pointer-events="none" display="none"/></g></g><g class="mark-group role-axis" role="graphics-symbol" aria-roledescription="axis" aria-label="X-axis titled 'x' for a linear scale with values from 0 to 20"><g transform="translate(0.5,80.5)"><path class="background" aria-hidden="true" d="M0,0h0v0h0Z" pointer-events="none"/><g><g class="mark-text role-axis-title" pointer-events="none"><text text-anchor="middle" transform="translate(200,13)" font-family="sans-serif" font-size="11px" font-weight="bold" fill="#000" opacity="1">x</text></g></g><path class="foreground" aria-hidden="true" d="" pointer-events="none" display="none"/></g></g><g class="mark-group role-axis"><g transform="translate(0.5,0.5)"><path class="background" aria-hidden="true" d="M0,0h0v0h0Z" pointer-events="none"/><g/><path class="foreground" aria-hidden="true" d="" pointer-events="none" display="none"/></g></g><g class="mark-rect role-mark concat_1_concat_1_marks" role="graphics-symbol" aria-roledescription="rect mark container"><path d="M199.5,2.5h1v15h-1Z" fill="#4c78a8" opacity="0.7"/><path d="M159.5,2.5h1v15h-1Z" fill="#4c78a8" opacity="0.7"/><path d="M259.5,2.5h1v15h-1Z" fill="#4c78a8" opacity="0.7"/><path d="M179.5,2.5h1v15h-1Z" fill="#4c78a8" opacity="0.7"/><path d="M219.50000000000003,2.5h1v15h-1Z" fill="#4c78a8" opacity="0.7"/><path d="M279.5,2.5h1v15h-1Z" fill="#4c78a8" opacity="0.7"/><path d="M119.5,2.5h1v15h-1Z" fill="#4c78a8" opacity="0.7"/><path d="M79.5,2.5h1v15h-1Z" fill="#4c78a8" opacity="0.7"/><path d="M239.5,2.5h1v15h-1Z" fill="#4c78a8" opacity="0.7"/><path d="M139.5,2.5h1v15h-1Z" fill="#4c78a8" opacity="0.7"/><path d="M99.5,2.5h1v15h-1Z" fill="#4c78a8" opacity="0.7"/><path d="M199.5,22.5h1v15h-1Z" fill="#f58518" opacity="0.7"/><path d="M159.5,22.5h1v15h-1Z" fill="#f58518" opacity="0.7"/><path d="M259.5,22.5h1v15h-1Z" fill="#f58518" opacity="0.7"/><path d="M179.5,22.5h1v15h-1Z" fill="#f58518" opacity="0.7"/><path d="M219.50000000000003,22.5h1v15h-1Z" fill="#f58518" opacity="0.7"/><path d="M279.5,22.5h1v15h-1Z" fill="#f58518" opacity="0.7"/><path d="M119.5,22.5h1v15h-1Z" fill="#f58518" opacity="0.7"/><path d="M79.5,22.5h1v15h-1Z" fill="#f58518" opacity="0.7"/><path d="M239.5,22.5h1v15h-1Z" fill="#f58518" opacity="0.7"/><path d="M139.5,22.5h1v15h-1Z" fill="#f58518" opacity="0.7"/><path d="M99.5,22.5h1v15h-1Z" fill="#f58518" opacity="0.7"/><path d="M199.5,42.5h1v15h-1Z" fill="#e45756" opacity="0.7"/><path d="M159.5,42.5h1v15h-1Z" fill="#e45756" opacity="0.7"/><path d="M259.5,42.5h1v15h-1Z" fill="#e45756" opacity="0.7"/><path d="M179.5,42.5h1v15h-1Z" fill="#e45756" opacity="0.7"/><path d="M219.50000000000003,42.5h1v15h-1Z" fill="#e45756" opacity="0.7"/><path d="M279.5,42.5h1v15h-1Z" fill="#e45756" opacity="0.7"/><path d="M119.5,42.5h1v15h-1Z" fill="#e45756" opacity="0.7"/><path d="M79.5,42.5h1v15h-1Z" fill="#e45756" opacity="0.7"/><path d="M239.5,42.5h1v15h-1Z" fill="#e45756" opacity="0.7"/><path d="M139.5,42.5h1v15h-1Z" fill="#e45756" opacity="0.7"/><path d="M99.5,42.5h1v15h-1Z" fill="#e45756" opacity="0.7"/><path d="M159.5,62.5h1v15h-1Z" fill="#72b7b2" opacity="0.7"/><path d="M159.5,62.5h1v15h-1Z" fill="#72b7b2" opacity="0.7"/><path d="M159.5,62.5h1v15h-1Z" fill="#72b7b2" opacity="0.7"/><path d="M159.5,62.5h1v15h-1Z" fill="#72b7b2" opacity="0.7"/><path d="M159.5,62.5h1v15h-1Z" fill="#72b7b2" opacity="0.7"/><path d="M159.5,62.5h1v15h-1Z" fill="#72b7b2" opacity="0.7"/><path d="M159.5,62.5h1v15h-1Z" fill="#72b7b2" opacity="0.7"/><path d="M379.5,62.5h1v15h-1Z" fill="#72b7b2" opacity="0.7"/><path d="M159.5,62.5h1v15h-1Z" fill="#72b7b2" opacity="0.7"/><path d="M159.5,62.5h1v15h-1Z" fill="#72b7b2" opacity="0.7"/><path d="M159.5,62.5h1v15h-1Z" fill="#72b7b2" opacity="0.7"/></g></g><path class="foreground" aria-hidden="true" d="" display="none"/></g></g></g><path class="foreground" aria-hidden="true" d="" display="none"/></g></g><g class="mark-group role-legend" role="graphics-symbol" aria-roledescription="legend" aria-label="Symbol legend titled 'Category' for fill color with 4 values: I, II, III, IV"><g transform="translate(541,0)"><path class="background" aria-hidden="true" d="M0,0h48v66h-48Z" pointer-events="none"/><g><g class="mark-group role-legend-entry"><g transform="translate(0,16)"><path class="background" aria-hidden="true" d="M0,0h0v0h0Z" pointer-events="none"/><g><g class="mark-group role-scope" role="graphics-object" aria-roledescription="group mark container"><g transform="translate(0,0)"><path class="background" aria-hidden="true" d="M0,0h25.4482421875v11h-25.4482421875Z" pointer-events="none" opacity="1"/><g><g class="mark-symbol role-legend-symbol" pointer-events="none"><path transform="translate(6,6)" d="M5,0A5,5,0,1,1,-5,0A5,5,0,1,1,5,0" fill="#4c78a8" stroke-width="1.5" opacity="0.7"/></g><g class="mark-text role-legend-label" pointer-events="none"><text text-anchor="start" transform="translate(16,9)" font-family="sans-serif" font-size="10px" fill="#000" opacity="1">I</text></g></g><path class="foreground" aria-hidden="true" d="" pointer-events="none" display="none"/></g><g transform="translate(0,13)"><path class="background" aria-hidden="true" d="M0,0h25.4482421875v11h-25.4482421875Z" pointer-events="none" opacity="1"/><g><g class="mark-symbol role-legend-symbol" pointer-events="none"><path transform="translate(6,6)" d="M5,0A5,5,0,1,1,-5,0A5,5,0,1,1,5,0" fill="#f58518" stroke-width="1.5" opacity="0.7"/></g><g class="mark-text role-legend-label" pointer-events="none"><text text-anchor="start" transform="translate(16,9)" font-family="sans-serif" font-size="10px" fill="#000" opacity="1">II</text></g></g><path class="foreground" aria-hidden="true" d="" pointer-events="none" display="none"/></g><g transform="translate(0,26)"><path class="background" aria-hidden="true" d="M0,0h25.4482421875v11h-25.4482421875Z" pointer-events="none" opacity="1"/><g><g class="mark-symbol role-legend-symbol" pointer-events="none"><path transform="translate(6,6)" d="M5,0A5,5,0,1,1,-5,0A5,5,0,1,1,5,0" fill="#e45756" stroke-width="1.5" opacity="0.7"/></g><g class="mark-text role-legend-label" pointer-events="none"><text text-anchor="start" transform="translate(16,9)" font-family="sans-serif" font-size="10px" fill="#000" opacity="1">III</text></g></g><path class="foreground" aria-hidden="true" d="" pointer-events="none" display="none"/></g><g transform="translate(0,39)"><path class="background" aria-hidden="true" d="M0,0h25.4482421875v11h-25.4482421875Z" pointer-events="none" opacity="1"/><g><g class="mark-symbol role-legend-symbol" pointer-events="none"><path transform="translate(6,6)" d="M5,0A5,5,0,1,1,-5,0A5,5,0,1,1,5,0" fill="#72b7b2" stroke-width="1.5" opacity="0.7"/></g><g class="mark-text role-legend-label" pointer-events="none"><text text-anchor="start" transform="translate(16,9)" font-family="sans-serif" font-size="10px" fill="#000" opacity="1">IV</text></g></g><path class="foreground" aria-hidden="true" d="" pointer-events="none" display="none"/></g></g></g><path class="foreground" aria-hidden="true" d="" pointer-events="none" display="none"/></g></g><g class="mark-text role-legend-title" pointer-events="none"><text text-anchor="start" transform="translate(0,9)" font-family="sans-serif" font-size="11px" font-weight="bold" fill="#000" opacity="1">Category</text></g></g><path class="foreground" aria-hidden="true" d="" pointer-events="none" display="none"/></g></g><g class="mark-group role-title"><g transform="translate(286.5,-28)"><path class="background" aria-hidden="true" d="M0,0h0v0h0Z" pointer-events="none"/><g><g class="mark-text role-title-text" role="graphics-symbol" aria-roledescription="title" aria-label="Title text 'Quarteto de Anscombe'" pointer-events="none"><text text-anchor="middle" transform="translate(0,18)" font-family="sans-serif" font-size="23px" font-weight="bold" fill="#000" opacity="1">Quarteto de Anscombe</text></g></g><path class="foreground" aria-hidden="true" d="" pointer-events="none" display="none"/></g></g></g><path class="foreground" aria-hidden="true" d="" display="none"/></g></g></g></svg>